<svg xmlns="http://www.w3.org/2000/svg" viewBox="0 0 1660 2200" font-family="Segoe UI, system-ui, Arial, sans-serif">
  <defs>
    <marker id="arr" markerWidth="11" markerHeight="11" refX="8" refY="3.2" orient="auto">
      <path d="M0,0 L8,3.2 L0,6.4 Z" fill="#3f4a5e"/>
    </marker>
    <marker id="arrLoop" markerWidth="11" markerHeight="11" refX="8" refY="3.2" orient="auto">
      <path d="M0,0 L8,3.2 L0,6.4 Z" fill="#d39e00"/>
    </marker>
    <marker id="arrDep" markerWidth="11" markerHeight="11" refX="8" refY="3.2" orient="auto">
      <path d="M0,0 L8,3.2 L0,6.4 Z" fill="#8895a7"/>
    </marker>
  </defs>

  <style>
    .title{font-size:30px;font-weight:700;fill:#0f1117}
    .subtitle{font-size:15px;fill:#566;}
    .layer{font-size:13px;font-weight:700;fill:#7a8295;letter-spacing:1.5px}
    .bt{font-size:14px;font-weight:700;fill:#19202c}
    .bd{font-size:11px;fill:#46506a}
    .bw{font-size:14px;font-weight:700;fill:#ffffff}
    .bdw{font-size:11px;fill:#cfd6e4}
    .edge{font-size:10.5px;fill:#667087;font-style:italic}
    .flow{stroke:#3f4a5e;stroke-width:2;fill:none}
    .loop{stroke:#d39e00;stroke-width:2;fill:none;stroke-dasharray:1 0}
    .dep{stroke:#8895a7;stroke-width:1.5;fill:none;stroke-dasharray:5 4}
  </style>

  <rect x="0" y="0" width="1660" height="2200" fill="#f6f8fb"/>

  <!-- ===== Title ===== -->
  <text x="40" y="48" class="title">Test Optimiser Agent — End-to-End Architecture</text>
  <text x="40" y="74" class="subtitle">L3 LangGraph agent: analyses a test suite and produces an optimised plan; recommends only, pauses for human approval 3×. Provider: Google Gemini (offline-safe).</text>

  <!-- ===== Legend ===== -->
  <g transform="translate(40,92)">
    <rect x="0" y="0" width="16" height="12" rx="3" fill="#e7f7ec" stroke="#2ecc71"/><text x="22" y="10" class="bd">work node</text>
    <rect x="120" y="0" width="16" height="12" rx="3" fill="#fdf3da" stroke="#e0a82e"/><text x="142" y="10" class="bd">gate / aux (loop)</text>
    <rect x="280" y="0" width="16" height="12" rx="3" fill="#efe7fb" stroke="#8e5bd6"/><text x="302" y="10" class="bd">HITL interrupt</text>
    <line x1="420" y1="6" x2="452" y2="6" class="flow" marker-end="url(#arr)"/><text x="458" y="10" class="bd">control flow</text>
    <line x1="560" y1="6" x2="592" y2="6" class="loop" marker-end="url(#arrLoop)"/><text x="598" y="10" class="bd">bounded loop</text>
    <line x1="700" y1="6" x2="732" y2="6" class="dep" marker-end="url(#arrDep)"/><text x="738" y="10" class="bd">uses (via call_tool / read)</text>
  </g>

  <!-- ================= FRONTEND ================= -->
  <text x="40" y="140" class="layer">BROWSER · REACT SPA  (Vite dev server, http://localhost:5173)</text>
  <rect x="40" y="150" width="1580" height="200" rx="14" fill="#eef3ff" stroke="#5b8cff" stroke-width="1.5"/>

  <g>
    <rect x="60" y="172" width="210" height="58" rx="9" fill="#ffffff" stroke="#5b8cff"/>
    <text x="165" y="196" text-anchor="middle" class="bt">InputPanel.tsx</text>
    <text x="165" y="214" text-anchor="middle" class="bd">form: suite, goal, target,</text>
    <text x="165" y="227" text-anchor="middle" class="bd">risk areas, run mode</text>

    <rect x="300" y="166" width="360" height="150" rx="9" fill="#ffffff" stroke="#5b8cff"/>
    <text x="480" y="188" text-anchor="middle" class="bt">App.tsx — state machine (the brain)</text>
    <text x="480" y="208" text-anchor="middle" class="bd">view: input → running → hitl → results</text>
    <text x="480" y="226" text-anchor="middle" class="bd">holds threadId, checkpoint, payload,</text>
    <text x="480" y="240" text-anchor="middle" class="bd">auditLog, toolErrors, outputs</text>
    <text x="480" y="260" text-anchor="middle" class="bd">useEffect → polls GET /runs/{id} (2s)</text>
    <text x="480" y="278" text-anchor="middle" class="bd">passes props down · gets callbacks up</text>

    <rect x="690" y="172" width="220" height="58" rx="9" fill="#ffffff" stroke="#5b8cff"/>
    <text x="800" y="196" text-anchor="middle" class="bt">3 HITL cards (hitl/)</text>
    <text x="800" y="214" text-anchor="middle" class="bd">ApproveRemovals · Ranking ·</text>
    <text x="800" y="227" text-anchor="middle" class="bd">Tests (checkboxes, pinned-lock)</text>

    <rect x="930" y="172" width="230" height="58" rx="9" fill="#ffffff" stroke="#5b8cff"/>
    <text x="1045" y="196" text-anchor="middle" class="bt">4 Result tabs (results/)</text>
    <text x="1045" y="214" text-anchor="middle" class="bd">Scorecard · CoverageMap ·</text>
    <text x="1045" y="227" text-anchor="middle" class="bd">Redundancy · OptimisedPlan</text>

    <rect x="1180" y="172" width="220" height="58" rx="9" fill="#ffffff" stroke="#5b8cff"/>
    <text x="1290" y="196" text-anchor="middle" class="bt">AuditLog · DegradedBanner</text>
    <text x="1290" y="214" text-anchor="middle" class="bd">plain-English progress feed;</text>
    <text x="1290" y="227" text-anchor="middle" class="bd">fallback notice</text>

    <rect x="1420" y="172" width="180" height="58" rx="9" fill="#dceaff" stroke="#3d6ad6"/>
    <text x="1510" y="193" text-anchor="middle" class="bt">api.ts</text>
    <text x="1510" y="210" text-anchor="middle" class="bd">axios; the only file</text>
    <text x="1510" y="223" text-anchor="middle" class="bd">with URLs; normalises</text>

    <!-- intra-frontend arrows -->
    <line x1="270" y1="201" x2="300" y2="221" class="flow" marker-end="url(#arr)"/>
    <line x1="660" y1="210" x2="690" y2="201" class="flow" marker-end="url(#arr)"/>
    <line x1="660" y1="230" x2="930" y2="210" class="flow" marker-end="url(#arr)"/>
    <line x1="660" y1="250" x2="1180" y2="210" class="flow" marker-end="url(#arr)"/>
    <line x1="660" y1="240" x2="1420" y2="205" class="flow" marker-end="url(#arr)"/>
    <text x="300" y="300" class="bd">types.ts — TypeScript shapes for every request/payload/output (compile-time contract; no runtime code).  index.css — all styling.  main.tsx — mounts &lt;App/&gt;.</text>
  </g>

  <!-- ================= HTTP ================= -->
  <line x1="1510" y1="350" x2="1510" y2="402" class="flow" marker-end="url(#arr)"/>
  <text x="40" y="378" class="layer">HTTP · JSON over localhost  (CORS allows :5173)</text>
  <rect x="40" y="388" width="1580" height="56" rx="10" fill="#eef1f5" stroke="#9aa3b2"/>
  <text x="60" y="412" class="bt">REST</text>
  <text x="60" y="430" class="bd">synchronous</text>
  <text x="230" y="412" class="bd">POST /runs  — start a run; blocks until 1st checkpoint or completion → returns {run_id, status, checkpoint, payload | outputs}</text>
  <text x="230" y="430" class="bd">POST /runs/{id}/resume  — submit a HITL decision (raw shape; backend wraps {"__hitl__": …}) → next checkpoint or outputs</text>
  <text x="1020" y="412" class="bd">GET /runs/{id} — live audit_log / tool_errors</text>
  <text x="1020" y="430" class="bd">GET /health — liveness</text>

  <!-- ================= BACKEND API ================= -->
  <line x1="830" y1="444" x2="830" y2="476" class="flow" marker-end="url(#arr)"/>
  <text x="40" y="500" class="layer">BACKEND · FASTAPI BRIDGE  (uvicorn, http://127.0.0.1:8000)  — thin shell, no agent logic</text>
  <rect x="40" y="510" width="1580" height="78" rx="12" fill="#e2f7f1" stroke="#1abc9c" stroke-width="1.5"/>
  <text x="60" y="536" class="bt">api.py</text>
  <text x="60" y="556" class="bd">(or main.py</text>
  <text x="60" y="569" class="bd">= CLI, stdin)</text>
  <text x="250" y="534" class="bd">start_run() · resume_run() · get_run() · health()</text>
  <text x="250" y="552" class="bd">MemorySaver checkpointer keyed by thread_id (= run_id) → pause at interrupt(), resume across requests</text>
  <text x="250" y="570" class="bd">recommend-only: never commits / deletes; warms the Gemini SDK at startup</text>
  <text x="900" y="552" class="bd">builds initial TestOptimiserState → GRAPH.invoke()</text>

  <!-- ================= GRAPH ================= -->
  <line x1="830" y1="588" x2="830" y2="624" class="flow" marker-end="url(#arr)"/>
  <rect x="430" y="624" width="640" height="1180" rx="14" fill="#ffffff" stroke="#2ecc71" stroke-width="1.5"/>
  <text x="750" y="650" text-anchor="middle" class="layer">LANGGRAPH AGENT  ·  src/graph.py  ·  state = TestOptimiserState (append-only audit_log / tool_errors)</text>

  <!-- nodes (center column x 520..840, w320) -->
  <!-- intake -->
  <rect x="520" y="666" width="320" height="46" rx="9" fill="#e7f7ec" stroke="#2ecc71"/>
  <text x="680" y="686" text-anchor="middle" class="bt">1 · intake</text>
  <text x="680" y="703" text-anchor="middle" class="bd">parse + normalise suite, extract entities; isolate unparseable</text>
  <!-- coverage -->
  <rect x="520" y="738" width="320" height="46" rx="9" fill="#e7f7ec" stroke="#2ecc71"/>
  <text x="680" y="758" text-anchor="middle" class="bt">2 · coverage</text>
  <text x="680" y="775" text-anchor="middle" class="bd">map tests↔criteria; find gaps (max_similarity)</text>
  <!-- redundancy -->
  <rect x="520" y="810" width="320" height="46" rx="9" fill="#e7f7ec" stroke="#2ecc71"/>
  <text x="680" y="830" text-anchor="middle" class="bt">3 · redundancy</text>
  <text x="680" y="847" text-anchor="middle" class="bd">cluster near-duplicates; flag flaky / slow from CI history</text>
  <!-- retrieval -->
  <rect x="520" y="882" width="320" height="46" rx="9" fill="#e7f7ec" stroke="#2ecc71"/>
  <text x="680" y="902" text-anchor="middle" class="bt">4 · retrieval</text>
  <text x="680" y="919" text-anchor="middle" class="bd">pull prior-run context + protected/flaky memory</text>
  <!-- scoring -->
  <rect x="520" y="954" width="320" height="46" rx="9" fill="#e7f7ec" stroke="#2ecc71"/>
  <text x="680" y="974" text-anchor="middle" class="bt">5 · scoring</text>
  <text x="680" y="991" text-anchor="middle" class="bd">6 health dimensions (LLM, strict JSON; else deterministic)</text>
  <!-- HITL 1 -->
  <rect x="520" y="1026" width="320" height="46" rx="9" fill="#efe7fb" stroke="#8e5bd6"/>
  <text x="680" y="1046" text-anchor="middle" class="bt">⏸ HITL 1 · approve_removals</text>
  <text x="680" y="1063" text-anchor="middle" class="bd">interrupt(): quarantine/merge candidates + evidence</text>
  <!-- prioritisation -->
  <rect x="520" y="1098" width="320" height="46" rx="9" fill="#e7f7ec" stroke="#2ecc71"/>
  <text x="680" y="1118" text-anchor="middle" class="bt">6 · prioritisation</text>
  <text x="680" y="1135" text-anchor="middle" class="bd">re-tier smoke / regression / full by risk + goal</text>
  <!-- gate -->
  <rect x="520" y="1170" width="320" height="46" rx="9" fill="#fdf3da" stroke="#e0a82e"/>
  <text x="680" y="1190" text-anchor="middle" class="bt">◆ coverage_floor_gate  (Blocker #2)</text>
  <text x="680" y="1207" text-anchor="middle" class="bd">projected &lt; target (0.80)? → revise, else → approve</text>
  <!-- HITL 2 -->
  <rect x="520" y="1242" width="320" height="46" rx="9" fill="#efe7fb" stroke="#8e5bd6"/>
  <text x="680" y="1262" text-anchor="middle" class="bt">⏸ HITL 2 · approve_ranking</text>
  <text x="680" y="1279" text-anchor="middle" class="bd">interrupt(): confirm the tiering + projected coverage</text>
  <!-- gap_generation -->
  <rect x="520" y="1314" width="320" height="46" rx="9" fill="#e7f7ec" stroke="#2ecc71"/>
  <text x="680" y="1334" text-anchor="middle" class="bt">7 · gap_generation</text>
  <text x="680" y="1351" text-anchor="middle" class="bd">draft a test per gap (LLM; else stub); gen_retry_count++</text>
  <!-- validation -->
  <rect x="520" y="1386" width="320" height="46" rx="9" fill="#fdf3da" stroke="#e0a82e"/>
  <text x="680" y="1406" text-anchor="middle" class="bt">◆ validation → route  (Blocker #1)</text>
  <text x="680" y="1423" text-anchor="middle" class="bd">sandbox syntax/import check → retry / drop / approve</text>
  <!-- HITL 3 -->
  <rect x="520" y="1458" width="320" height="46" rx="9" fill="#efe7fb" stroke="#8e5bd6"/>
  <text x="680" y="1478" text-anchor="middle" class="bt">⏸ HITL 3 · approve_tests</text>
  <text x="680" y="1495" text-anchor="middle" class="bd">interrupt(): pick generated tests to keep</text>
  <!-- assemble -->
  <rect x="520" y="1530" width="320" height="46" rx="9" fill="#e7f7ec" stroke="#2ecc71"/>
  <text x="680" y="1550" text-anchor="middle" class="bt">8 · assemble</text>
  <text x="680" y="1567" text-anchor="middle" class="bd">build current-vs-proposed optimised plan</text>
  <!-- report -->
  <rect x="520" y="1602" width="320" height="46" rx="9" fill="#e7f7ec" stroke="#2ecc71"/>
  <text x="680" y="1622" text-anchor="middle" class="bt">9 · report</text>
  <text x="680" y="1639" text-anchor="middle" class="bd">render 4 deliverables; tag addressed gaps; write memory</text>
  <!-- END -->
  <rect x="610" y="1674" width="140" height="40" rx="9" fill="#2b2f3a" stroke="#2b2f3a"/>
  <text x="680" y="1699" text-anchor="middle" class="bw">END</text>

  <!-- main flow arrows -->
  <line x1="680" y1="712" x2="680" y2="738" class="flow" marker-end="url(#arr)"/>
  <line x1="680" y1="784" x2="680" y2="810" class="flow" marker-end="url(#arr)"/>
  <line x1="680" y1="856" x2="680" y2="882" class="flow" marker-end="url(#arr)"/>
  <line x1="680" y1="928" x2="680" y2="954" class="flow" marker-end="url(#arr)"/>
  <line x1="680" y1="1000" x2="680" y2="1026" class="flow" marker-end="url(#arr)"/>
  <line x1="680" y1="1072" x2="680" y2="1098" class="flow" marker-end="url(#arr)"/>
  <line x1="680" y1="1144" x2="680" y2="1170" class="flow" marker-end="url(#arr)"/>
  <line x1="680" y1="1216" x2="680" y2="1242" class="flow" marker-end="url(#arr)"/>
  <text x="690" y="1234" class="edge">approve_ranking</text>
  <line x1="680" y1="1288" x2="680" y2="1314" class="flow" marker-end="url(#arr)"/>
  <line x1="680" y1="1360" x2="680" y2="1386" class="flow" marker-end="url(#arr)"/>
  <line x1="680" y1="1432" x2="680" y2="1458" class="flow" marker-end="url(#arr)"/>
  <text x="690" y="1450" class="edge">approve_tests</text>
  <line x1="680" y1="1504" x2="680" y2="1530" class="flow" marker-end="url(#arr)"/>
  <line x1="680" y1="1576" x2="680" y2="1602" class="flow" marker-end="url(#arr)"/>
  <line x1="680" y1="1648" x2="680" y2="1674" class="flow" marker-end="url(#arr)"/>

  <!-- loop 1: gate <-> revise -->
  <rect x="888" y="1170" width="150" height="46" rx="9" fill="#fdf3da" stroke="#e0a82e"/>
  <text x="963" y="1190" text-anchor="middle" class="bt">revise</text>
  <text x="963" y="1206" text-anchor="middle" class="bd">revert least-</text>
  <path d="M840,1185 H963 V1170" class="loop" marker-end="url(#arrLoop)" transform="translate(0,0)"/>
  <path d="M963,1216 V1230 H700 V1216" class="loop" marker-end="url(#arrLoop)"/>
  <text x="846" y="1163" class="edge">below floor → revise</text>
  <text x="700" y="1245" class="edge">re-check gate</text>

  <!-- loop 2: validation retry / drop_failing -->
  <rect x="888" y="1386" width="150" height="46" rx="9" fill="#fdf3da" stroke="#e0a82e"/>
  <text x="963" y="1406" text-anchor="middle" class="bt">drop_failing</text>
  <text x="963" y="1422" text-anchor="middle" class="bd">flag + proceed</text>
  <path d="M840,1409 H963" class="loop" marker-end="url(#arrLoop)"/>
  <text x="846" y="1402" class="edge">&gt; MAX_GEN_RETRIES (3)</text>
  <path d="M963,1432 V1481 H840" class="loop" marker-end="url(#arrLoop)"/>
  <!-- retry edge: validation back up to gap_generation -->
  <path d="M520,1409 H470 V1337 H520" class="loop" marker-end="url(#arrLoop)"/>
  <text x="436" y="1375" class="edge" transform="rotate(-90 446 1375)">retry ≤ 3 → gap_generation</text>

  <!-- ================= LEFT RAIL: cross-cutting ================= -->
  <text x="40" y="650" class="layer">CROSS-CUTTING</text>
  <rect x="40" y="666" width="360" height="120" rx="11" fill="#eef0f4" stroke="#6b7280"/>
  <text x="60" y="690" class="bt">config.py  (settings)</text>
  <text x="60" y="710" class="bd">loads .env (GEMINI_API_KEY), injects</text>
  <text x="60" y="725" class="bd">truststore (corporate TLS). All thresholds:</text>
  <text x="60" y="740" class="bd">MAX_GEN_RETRIES=3 · coverage floor 0.80</text>
  <text x="60" y="755" class="bd">flaky 10% · slow 10s · similarity 0.45 / 0.80</text>
  <text x="60" y="772" class="bd">flags: OFFLINE_MODE · EMBED_ALLOW_DOWNLOAD · SPACY_NER</text>

  <rect x="40" y="800" width="360" height="92" rx="11" fill="#eef0f4" stroke="#6b7280"/>
  <text x="60" y="824" class="bt">observability.py</text>
  <text x="60" y="844" class="bd">logging + rotating logs/agent.log;</text>
  <text x="60" y="859" class="bd">every node appends a structured</text>
  <text x="60" y="874" class="bd">entry to state.audit_log (local time)</text>

  <rect x="40" y="906" width="360" height="92" rx="11" fill="#eef0f4" stroke="#6b7280"/>
  <text x="60" y="930" class="bt">memory/store.py</text>
  <text x="60" y="950" class="bd">per-project long-term store:</text>
  <text x="60" y="965" class="bd">prior decisions (never re-suggest a</text>
  <text x="60" y="980" class="bd">reject), protected + flaky tests</text>

  <rect x="40" y="1012" width="360" height="88" rx="11" fill="#eef0f4" stroke="#6b7280"/>
  <text x="60" y="1036" class="bt">tools/tool_wrapper.py  (Blocker #3)</text>
  <text x="60" y="1056" class="bd">call_tool(): retry (Transient) / no-retry</text>
  <text x="60" y="1071" class="bd">(Fatal) / degrade → uniform envelope;</text>
  <text x="60" y="1086" class="bd">failures land in state.tool_errors</text>

  <!-- cross-cutting dashed links to graph -->
  <line x1="400" y1="726" x2="430" y2="900" class="dep" marker-end="url(#arrDep)"/>
  <text x="402" y="800" class="edge">config → all</text>
  <line x1="430" y1="1000" x2="400" y2="846" class="dep" marker-end="url(#arrDep)"/>
  <text x="300" y="1015" class="edge">audit ←</text>
  <line x1="430" y1="905" x2="400" y2="952" class="dep" marker-end="url(#arrDep)"/>
  <text x="300" y="935" class="edge">memory ↔ retrieval/report</text>

  <!-- ================= RIGHT RAIL: capabilities + data ================= -->
  <text x="1100" y="650" class="layer">CAPABILITY LAYERS  (nodes call them via call_tool)</text>

  <!-- Tools -->
  <rect x="1100" y="666" width="520" height="150" rx="11" fill="#fbe7d6" stroke="#e67e22"/>
  <text x="1120" y="690" class="bt">src/tools/  — external integrations (all via call_tool)</text>
  <text x="1120" y="712" class="bd">repo_reader · test_parser (pytest AST; junit/jest/cypress stubs)</text>
  <text x="1120" y="730" class="bd">coverage_parser (+ static fallback) · ci_history · test_management</text>
  <text x="1120" y="748" class="bd">vector_store (Chroma) · sandbox (subprocess syntax/import — never runs prod)</text>
  <text x="1120" y="770" class="bd">degrade rules: coverage→estimate · CI→"needs data" · repo→fatal halt</text>
  <text x="1120" y="792" class="bd">used by: intake · coverage · redundancy · retrieval · validation</text>

  <!-- NLP -->
  <rect x="1100" y="830" width="520" height="120" rx="11" fill="#e6f7fa" stroke="#16a3b8"/>
  <text x="1120" y="854" class="bt">src/nlp/  — deterministic backbone (no token cost; offline fallback)</text>
  <text x="1120" y="876" class="bd">embeddings (sentence-transformers OR hashing fallback)</text>
  <text x="1120" y="894" class="bd">similarity (criteria↔test match, gap detection)</text>
  <text x="1120" y="912" class="bd">clustering (near-duplicate groups) · extraction (entities, log triage)</text>
  <text x="1120" y="934" class="bd">used by: coverage (similarity) · redundancy (clustering) · intake (extraction)</text>

  <!-- LLM -->
  <rect x="1100" y="964" width="520" height="96" rx="11" fill="#fde7ef" stroke="#e0457b"/>
  <text x="1120" y="988" class="bt">src/llm.py  — the single LLM client (offline-safe)</text>
  <text x="1120" y="1010" class="bd">complete() · llm_available() · extract_json() · load_prompt()</text>
  <text x="1120" y="1028" class="bd">prompts/: scoring · prioritisation · gap_generation</text>
  <text x="1120" y="1046" class="bd">used by: scoring · gap_generation  (Fatal=auth, Transient=else)</text>

  <!-- Gemini -->
  <rect x="1100" y="1074" width="520" height="64" rx="11" fill="#fff4d6" stroke="#d39e00"/>
  <text x="1120" y="1098" class="bt">Google Gemini API</text>
  <text x="1120" y="1118" class="bd">gemini-2.5-flash (REASONING_MODEL / FAST_MODEL) · 429 / no key → deterministic fallback</text>

  <!-- Inputs / data -->
  <text x="1100" y="1178" class="layer">DATA INPUTS  ·  sample_data/  (generated, single source of truth)</text>
  <rect x="1100" y="1192" width="520" height="150" rx="11" fill="#fdf7d6" stroke="#c9a200"/>
  <text x="1120" y="1216" class="bt">sample_suite/*.py  — the test suite (23 tests, 5 files)  ← suite_path (per-run)</text>
  <text x="1120" y="1238" class="bd">mock_ci_history.json — runs/fails/avg_seconds   (FIXED path → ci_history)</text>
  <text x="1120" y="1256" class="bd">sample_criteria.json — acceptance criteria AC-*  (FIXED path → test_management)</text>
  <text x="1120" y="1274" class="bd">expected_findings.json — GOLDEN answer key (test-only; not read at runtime)</text>
  <text x="1120" y="1296" class="bd">generate_sample_data.py — declares planted facts, writes all of the above</text>
  <text x="1120" y="1318" class="bd">consumed by the Tools layer; only suite_path is request-driven</text>
  <line x1="1360" y1="1192" x2="1360" y2="816" class="dep" marker-end="url(#arrDep)"/>
  <text x="1366" y="1170" class="edge">files read by tools</text>

  <!-- dependency arrows: graph nodes -> capabilities -->
  <line x1="840" y1="761" x2="1100" y2="740" class="dep" marker-end="url(#arrDep)"/>
  <text x="900" y="745" class="edge">coverage → tools + NLP</text>
  <line x1="840" y1="833" x2="1100" y2="895" class="dep" marker-end="url(#arrDep)"/>
  <text x="900" y="852" class="edge">redundancy → CI + clustering</text>
  <line x1="840" y1="689" x2="1100" y2="710" class="dep" marker-end="url(#arrDep)"/>
  <text x="900" y="682" class="edge">intake → parser</text>
  <line x1="840" y1="977" x2="1100" y2="1005" class="dep" marker-end="url(#arrDep)"/>
  <text x="900" y="985" class="edge">scoring → LLM</text>
  <line x1="840" y1="1337" x2="1100" y2="1030" class="dep" marker-end="url(#arrDep)"/>
  <text x="900" y="1320" class="edge">gap_generation → LLM</text>
  <line x1="840" y1="1409" x2="1100" y2="785" class="dep" marker-end="url(#arrDep)"/>
  <text x="900" y="1405" class="edge">validation → sandbox</text>
  <line x1="1360" y1="1060" x2="1360" y2="1074" class="flow" marker-end="url(#arr)"/>

  <!-- ================= OUTPUTS ================= -->
  <line x1="680" y1="1714" x2="680" y2="1840" class="flow" marker-end="url(#arr)"/>
  <text x="690" y="1740" class="edge">final_outputs</text>
  <text x="40" y="1834" class="layer">OUTPUTS  ·  written to outputs/*.json (CLI)  ·  returned in the run response (API → Result tabs)</text>
  <rect x="40" y="1846" width="1580" height="150" rx="12" fill="#eafaf1" stroke="#2ecc71" stroke-width="1.5"/>
  <text x="60" y="1872" class="bt">1 · Test Health Scorecard</text>
  <text x="60" y="1892" class="bd">6 dimensions × {score 0–10 | null, reason, action}</text>
  <text x="60" y="1907" class="bd">null = insufficient evidence</text>
  <text x="450" y="1872" class="bt">2 · Coverage &amp; Gap Map</text>
  <text x="450" y="1892" class="bd">coverage_map · gaps[{criterion, max_similarity,</text>
  <text x="450" y="1907" class="bd">risk, addressed_by}] · projected_coverage</text>
  <text x="860" y="1872" class="bt">3 · Redundancy &amp; Flakiness</text>
  <text x="860" y="1892" class="bd">redundancy_flags · flakiness_flags ·</text>
  <text x="860" y="1907" class="bd">slow_flags (each with evidence + action)</text>
  <text x="1240" y="1872" class="bt">4 · Optimised Plan</text>
  <text x="1240" y="1892" class="bd">current vs proposed: tiers, removed,</text>
  <text x="1240" y="1907" class="bd">merged, generated, kept + projected_coverage</text>
  <text x="60" y="1945" class="bd">＋ append-only audit_log (every node/event)  ·  tool_errors (degraded dependencies → DegradedBanner)  ·  approved decisions + new flaky tests persisted to memory</text>
  <text x="60" y="1972" class="bd">The API response carries these back to App.tsx, which renders the 4 Result tabs; the CLI writes them as four JSON files in outputs/.</text>

  <!-- ================= INVARIANTS NOTE ================= -->
  <rect x="40" y="2018" width="1580" height="150" rx="12" fill="#fffbe9" stroke="#d39e00"/>
  <text x="60" y="2044" class="bt">Key invariants &amp; behaviours (no detail skipped)</text>
  <text x="60" y="2068" class="bd">• Backend is synchronous: a POST blocks until the next interrupt() or END. Resume decisions are raw (list / tiers / list); api.py wraps them as {"__hitl__": …} so an empty approval still resumes.</text>
  <text x="60" y="2088" class="bd">• Two bounded loops: coverage_floor_gate ⇄ revise (never lets a change set drop below the 0.80 coverage target); validation ⇄ gap_generation (≤ MAX_GEN_RETRIES=3) then drop_failing — the run always terminates.</text>
  <text x="60" y="2108" class="bd">• Three HITL interrupts gate every destructive action; risk-area tests are pinned (never removable). Nothing is deleted/committed without a human decision written into state.</text>
  <text x="60" y="2128" class="bd">• Offline-safe: with no Gemini key (or on 429), scoring + gap_generation fall back to deterministic methods and the run still completes — surfaced via tool_errors / the degraded banner.</text>
  <text x="60" y="2148" class="bd">• Single source of truth: sample_data is generated; the e2e test (tests/test_graph_e2e.py) asserts the agent reproduces expected_findings.json. AGENT_SPEC.md is the design authority.</text>
</svg>
